<?xml version="1.0" standalone="no"?>
<!DOCTYPE svg PUBLIC "-//W3C//DTD SVG 20010904//EN"
 "http://www.w3.org/TR/2001/REC-SVG-20010904/DTD/svg10.dtd">
<svg version="1.0" xmlns="http://www.w3.org/2000/svg"
 width="1280.000000pt" height="1280.000000pt" viewBox="0 0 1280.000000 1280.000000"
 preserveAspectRatio="xMidYMid meet">
<metadata>
Created by potrace 1.14, written by Peter Selinger 2001-2017
</metadata>
<g transform="translate(0.000000,1280.000000) scale(0.100000,-0.100000)"
fill="#000000" stroke="none">
<path d="M6487 10423 c-4 -3 -37 -7 -74 -9 -59 -3 -108 -9 -108 -14 0 -1 -11
-3 -25 -5 -14 -2 -37 -6 -52 -9 -16 -3 -39 -8 -54 -11 -24 -5 -85 -27 -129
-45 -82 -35 -241 -115 -247 -124 -4 -6 -8 -7 -8 -3 0 5 -15 0 -32 -10 -18 -11
-67 -39 -108 -63 -41 -24 -83 -50 -92 -58 -10 -8 -18 -11 -18 -6 0 5 -5 1 -11
-8 -5 -10 -14 -18 -20 -18 -5 0 -15 -4 -22 -10 -7 -5 -46 -34 -87 -64 -41 -30
-88 -66 -103 -80 -15 -14 -30 -26 -33 -26 -3 0 -24 -17 -47 -37 -115 -105
-236 -237 -295 -325 -18 -25 -39 -54 -48 -62 -8 -9 -13 -16 -11 -16 3 0 -19
-37 -49 -82 -30 -46 -54 -89 -54 -95 0 -7 -4 -13 -9 -13 -5 0 -15 -16 -21 -35
-6 -19 -16 -35 -21 -35 -5 0 -9 -4 -9 -10 0 -5 -32 -76 -72 -157 -40 -82 -73
-152 -74 -158 -2 -5 -22 -53 -46 -105 -52 -115 -72 -166 -69 -176 2 -4 -1 -10
-6 -13 -11 -7 -91 -200 -105 -253 -6 -21 -13 -38 -17 -38 -4 0 -7 -9 -8 -20
-1 -11 -9 -35 -17 -52 -9 -17 -16 -37 -16 -45 0 -7 -5 -21 -10 -31 -10 -17
-20 -44 -83 -232 -18 -52 -36 -98 -42 -102 -5 -4 -7 -8 -3 -8 4 0 0 -19 -8
-42 -9 -24 -17 -50 -19 -58 -2 -8 -8 -27 -14 -42 -6 -16 -8 -28 -5 -28 4 0 1
-6 -5 -13 -6 -8 -12 -22 -14 -33 -2 -10 -7 -26 -10 -34 -7 -19 -41 -122 -43
-132 -1 -5 -2 -9 -3 -10 -2 -2 -4 -14 -7 -27 -2 -13 -12 -49 -20 -79 -9 -30
-17 -60 -18 -66 -1 -6 -5 -20 -9 -31 -3 -11 -9 -36 -11 -55 -3 -19 -8 -46 -11
-60 -7 -31 -7 -214 0 -255 3 -16 7 -43 10 -60 5 -28 8 -45 19 -93 10 -42 46
-143 76 -207 43 -95 170 -345 180 -355 3 -3 6 -12 8 -20 2 -8 10 -22 18 -31 8
-8 14 -19 14 -24 0 -5 6 -16 14 -24 21 -24 187 -351 179 -351 -5 0 -3 -4 2 -8
10 -6 107 -216 143 -307 9 -22 19 -42 22 -45 3 -3 6 -14 7 -25 5 -37 9 -54 16
-61 9 -9 -18 -34 -37 -34 -44 0 -240 -87 -263 -118 -7 -8 -13 -13 -13 -9 0 3
-12 -5 -26 -18 -96 -89 -94 -86 -68 -123 12 -17 12 -22 2 -22 -11 0 -11 -2 0
-9 10 -6 10 -10 -2 -21 -9 -7 -13 -17 -9 -23 4 -6 0 -8 -10 -4 -10 3 -17 3
-17 -2 0 -5 -10 -12 -22 -15 -30 -8 -55 -30 -101 -91 -21 -27 -55 -68 -76 -90
-48 -52 -107 -136 -109 -155 0 -8 -4 -37 -7 -65 -4 -27 -7 -58 -7 -68 1 -9 -5
-17 -11 -17 -7 0 -6 -4 3 -10 13 -9 13 -10 0 -10 -12 0 -12 -2 -2 -9 17 -10
-15 -32 -73 -51 -22 -7 -46 -17 -52 -23 -7 -5 -13 -6 -13 -2 0 4 -11 0 -25 -9
-14 -9 -25 -14 -25 -12 0 8 -160 -60 -300 -127 -94 -45 -263 -155 -325 -210
-22 -20 -43 -37 -47 -37 -6 0 -21 -35 -23 -52 0 -5 -4 -9 -10 -10 -31 -5 -57
-63 -129 -280 -65 -201 -89 -283 -135 -465 -6 -21 -19 -90 -31 -153 -12 -63
-26 -130 -31 -147 -6 -18 -13 -50 -15 -70 -2 -21 -6 -51 -9 -68 -2 -16 -7 -52
-10 -80 -3 -27 -15 -104 -25 -170 -11 -66 -22 -154 -25 -195 -9 -94 -12 -131
-19 -200 -9 -87 -16 -168 -22 -260 -3 -47 -7 -107 -9 -135 -2 -27 -6 -113 -10
-190 -7 -156 -7 -156 -88 -240 -70 -72 -191 -204 -215 -235 -23 -29 -74 -150
-64 -150 4 0 8 -17 10 -37 1 -20 7 -40 13 -44 6 -3 10 -9 10 -13 -1 -3 -1 -7
0 -8 0 -2 2 -10 4 -19 7 -38 96 -219 107 -219 18 0 7 -58 -14 -77 -13 -11 -36
-36 -53 -57 -55 -69 -62 -76 -69 -69 -3 3 -6 0 -6 -7 0 -7 -11 -23 -24 -35
-38 -36 -47 -59 -33 -89 l12 -26 4278 0 c3795 0 4277 2 4277 15 0 8 5 15 10
15 18 0 3 49 -25 81 -26 32 -26 59 1 86 7 7 15 26 19 43 4 16 11 30 17 30 6 0
9 3 5 6 -3 3 1 23 8 45 8 21 12 39 9 39 -2 0 0 9 6 20 6 11 13 48 16 82 2 35
6 74 8 88 2 14 0 30 -3 35 -3 6 -6 16 -8 24 -1 8 -5 17 -10 20 -4 3 -14 18
-22 33 -15 30 -149 168 -163 168 -4 0 -8 7 -8 16 0 8 -4 12 -10 9 -5 -3 -10
-2 -10 4 0 5 -6 16 -13 23 -58 59 -68 85 -73 180 -2 51 -6 107 -8 123 -7 61
-18 171 -22 220 -2 28 -6 66 -9 85 -3 19 -7 60 -10 90 -3 30 -7 75 -11 100 -3
25 -8 77 -10 115 -8 104 -11 144 -18 205 -8 76 -24 206 -31 260 -4 25 -8 56
-9 70 -6 45 -18 135 -22 165 -3 16 -7 48 -9 70 -6 60 -15 113 -30 185 -15 66
-30 153 -40 225 -4 22 -8 47 -10 55 -2 8 -7 31 -10 50 -3 19 -13 61 -21 92 -8
31 -14 61 -13 65 1 4 -1 15 -4 23 -4 8 -8 26 -10 40 -2 14 -6 32 -9 40 -3 8
-24 74 -48 147 -23 72 -51 139 -61 149 -10 9 -19 23 -19 30 0 7 -9 16 -20 19
-11 3 -20 14 -20 23 -1 23 -25 51 -80 92 -25 19 -56 45 -70 60 -14 14 -40 32
-57 39 -18 7 -33 17 -33 22 0 5 -4 9 -10 9 -5 0 -40 20 -77 45 -59 40 -280
153 -503 258 -36 17 -68 35 -71 39 -3 5 -4 29 -2 53 5 43 -14 89 -44 108 -7 4
-13 15 -13 22 0 8 -5 15 -11 15 -17 0 -115 106 -171 185 -75 106 -90 125 -102
125 -28 0 -52 73 -37 113 8 21 5 29 -18 51 -15 14 -32 26 -39 26 -7 0 -12 3
-12 8 0 4 -13 13 -28 20 -53 23 -154 61 -161 60 -21 -2 -41 3 -41 13 0 5 4 8
9 5 11 -7 8 21 -4 31 -4 4 -5 2 0 -6 5 -10 4 -12 -4 -7 -6 4 -9 12 -5 17 3 5
10 6 16 3 7 -5 9 -2 5 8 -3 9 -3 19 1 23 4 4 7 10 7 13 1 7 35 63 45 72 7 7
29 42 37 60 4 8 9 17 13 20 3 3 51 75 105 160 55 85 104 160 110 166 5 6 19
28 30 50 11 21 23 41 26 44 7 6 52 77 79 124 10 18 24 44 32 57 7 13 17 27 21
30 5 3 9 9 8 12 0 4 26 62 58 129 32 68 66 148 76 178 10 30 22 64 26 75 26
62 43 179 43 305 1 141 -3 188 -30 330 -8 47 -18 101 -20 120 -2 19 -7 42 -11
50 -3 8 -7 24 -9 35 -1 11 -5 32 -8 48 -3 15 -9 39 -12 55 -3 15 -21 90 -40
167 -20 77 -39 156 -44 175 -5 19 -18 67 -29 105 -48 169 -72 252 -81 285 -5
19 -21 76 -35 125 -14 50 -28 98 -30 109 -2 10 -14 50 -26 90 -12 39 -33 107
-46 151 -42 139 -115 349 -129 372 -8 12 -14 29 -14 37 0 14 -88 197 -99 206
-4 3 -26 45 -49 94 -49 101 -130 225 -197 302 -47 54 -101 119 -107 129 -10
17 -173 177 -244 240 -31 28 -65 58 -75 68 -11 9 -22 17 -27 17 -4 0 -18 10
-32 23 -34 30 -136 97 -149 97 -6 0 -11 5 -11 10 0 6 -7 10 -15 10 -8 0 -15 5
-15 10 0 6 -5 10 -11 10 -6 0 -29 13 -52 28 -34 23 -185 101 -207 107 -10 3
-66 26 -85 35 -35 17 -155 59 -155 55 0 -2 -16 3 -35 11 -20 8 -40 12 -45 9
-6 -4 -10 -2 -10 2 0 5 -12 10 -26 11 -15 1 -45 7 -68 13 -23 7 -50 13 -61 14
-11 1 -38 6 -60 10 -22 4 -70 8 -106 9 -36 2 -70 5 -76 9 -5 4 -13 4 -16 0z"/>
</g>
</svg>
